<svg width="312" height="311" viewBox="0 0 312 311" fill="none" xmlns="http://www.w3.org/2000/svg">
<path d="M275.69 265.357C269.291 271.926 263.236 276.162 258.452 279.509C202.222 318.85 135.686 307.382 121.545 304.581C100.664 300.446 60.3003 292.452 31.1182 258.99C-13.0317 208.365 -6.15694 128.606 28.0888 75.9557C34.3528 66.3251 67.4415 12.8731 134.694 4.30116C175.394 -0.886482 222.838 9.57637 257.196 37.6437C329.315 96.5595 324.181 215.58 275.69 265.357Z" fill="url(#paint0_linear_350_424)"/>
<path d="M56.7023 1.9796C46.6324 29.675 -6.54752 191.983 111.305 239.277C111.305 239.277 169.218 136.024 60.342 0.561424C59.3895 -0.623617 57.3602 0.170237 56.7023 1.9796Z" fill="#BDD0FB"/>
<path d="M62.9192 27.1099C62.9192 27.1099 62.7236 30.3954 62.5692 36.1593C62.4155 41.9223 62.2981 50.161 62.4591 60.0444C62.6128 69.9272 63.0509 81.4551 63.9559 93.7756C64.8756 106.093 66.2557 119.207 68.2958 132.219C69.3105 138.726 70.4797 145.208 71.8082 151.55C73.1432 157.891 74.6415 164.091 76.2864 170.035C77.9306 175.979 79.7242 181.667 81.6286 186.986C83.5315 192.305 85.5463 197.254 87.5915 201.734C89.6393 206.213 91.6981 210.233 93.6806 213.703C94.1685 214.575 94.6784 215.398 95.1499 216.203C95.388 216.604 95.622 216.998 95.8513 217.385C96.0923 217.764 96.329 218.136 96.5604 218.501C97.0246 219.23 97.4695 219.929 97.8947 220.598C98.3408 221.252 98.766 221.875 99.1699 222.467C99.9631 223.662 100.732 224.684 101.391 225.581C101.721 226.029 102.026 226.443 102.306 226.823C102.599 227.192 102.865 227.528 103.103 227.828C104.055 229.03 104.563 229.672 104.563 229.672L104.581 229.694C104.839 230.019 104.784 230.491 104.458 230.749C104.133 231.007 103.661 230.952 103.403 230.627L103.401 230.624C103.401 230.624 102.888 229.971 101.926 228.747C101.686 228.441 101.417 228.099 101.122 227.723C100.84 227.337 100.531 226.915 100.199 226.46C99.5343 225.548 98.7588 224.508 97.9605 223.295C97.554 222.694 97.1259 222.06 96.6765 221.396C96.249 220.718 95.8015 220.008 95.3348 219.269C95.1023 218.899 94.8645 218.521 94.6224 218.136C94.3916 217.744 94.1569 217.345 93.9172 216.938C93.444 216.122 92.9318 215.288 92.4424 214.405C90.4533 210.889 88.3919 206.823 86.346 202.299C84.3026 197.774 82.294 192.782 80.4018 187.422C78.5076 182.063 76.7285 176.338 75.101 170.36C73.4732 164.382 71.9948 158.152 70.6814 151.784C69.3747 145.415 68.229 138.91 67.2381 132.382C65.2468 119.327 63.9177 106.183 63.0471 93.8411C62.1912 81.4965 61.8001 69.9514 61.6871 60.0553C61.4497 40.2585 62.2833 27.0719 62.2833 27.0719C62.2938 26.8964 62.445 26.7629 62.6204 26.7735C62.7962 26.7841 62.9298 26.9345 62.9192 27.1099Z" fill="url(#paint1_linear_350_424)"/>
<path d="M82.4848 182.916C82.4848 182.916 -12.2188 149.551 2.48656 29.8211C2.73185 27.8249 5.88217 26.7213 7.68298 27.9991C24.446 39.8936 81.844 87.5565 82.4848 182.916Z" fill="#91B3FA"/>
<path d="M19.0564 53.8754C19.0564 53.8754 22.4583 60.9704 27.5617 71.613C30.1066 76.9374 33.0554 83.1591 36.1899 89.8371C37.7366 93.1855 39.335 96.6456 40.9591 100.162C41.7655 101.922 42.578 103.697 43.3944 105.478C44.1974 107.266 45.0041 109.06 45.8105 110.854C47.4162 114.446 49.0219 118.038 50.6028 121.574C52.1697 125.116 53.7112 128.602 55.2036 131.976C56.663 135.364 58.0743 138.639 59.4122 141.745C60.7497 144.85 61.9792 147.802 63.1326 150.519C63.7125 151.876 64.2515 153.183 64.7559 154.431C65.2644 155.676 65.7465 156.857 66.1999 157.968C66.6526 159.078 67.0764 160.117 67.4685 161.078C67.8508 162.043 68.2019 162.929 68.5191 163.73C69.7771 166.935 70.4957 168.767 70.4957 168.767C70.5523 168.911 70.4815 169.074 70.3373 169.13C70.1964 169.186 70.0376 169.118 69.978 168.98L69.9762 168.976C69.9762 168.976 69.2025 167.169 67.8477 164.006C67.5117 163.214 67.1401 162.338 66.7351 161.383C66.3206 160.433 65.8722 159.405 65.3934 158.307C64.4326 156.112 63.3486 153.635 62.1658 150.933C60.9731 148.236 59.7016 145.305 58.3192 142.221C56.9362 139.138 55.4779 135.886 53.9693 132.522C52.4608 129.158 50.9024 125.681 49.3183 122.149C47.7203 118.623 46.097 115.041 44.4736 111.459C41.2232 104.296 37.9725 97.1329 34.9254 90.4178C31.8984 83.6925 29.0736 77.4155 26.6523 72.0352C24.2167 66.6612 22.1869 62.1828 20.766 59.0479C20.0521 57.4822 19.4911 56.2518 19.109 55.413C18.7211 54.5767 18.5142 54.1307 18.5142 54.1307C18.4446 53.9805 18.5099 53.8024 18.6599 53.7328C18.8087 53.6636 18.9856 53.7279 19.0564 53.8754Z" fill="url(#paint2_linear_350_424)"/>
<path d="M16.8526 97.8059L287.132 93.2385C298.014 93.0547 306.748 102.388 306.101 113.508L296.798 273.495C296.289 282.251 289.246 289.109 280.678 289.194L20.8737 291.763C14.4565 291.827 9.15462 286.653 8.91023 280.088L2.69425 113.113C2.3867 104.849 8.77548 97.9424 16.8526 97.8059Z" fill="url(#paint3_linear_350_424)"/>
<path d="M20.9965 101.882L284.222 97.5362C294.819 97.3612 303.325 106.241 302.696 116.821L293.635 269.033C293.139 277.363 286.281 283.888 277.936 283.969L24.9126 286.414C18.6628 286.474 13.4994 281.551 13.2613 275.306L7.20764 116.445C6.90809 108.583 13.1303 102.012 20.9965 101.882Z" fill="#7D97F4"/>
<path d="M26.2921 110.052L277.722 105.98C287.845 105.816 295.969 114.137 295.368 124.051L286.714 266.681C286.24 274.487 279.688 280.602 271.718 280.677L30.0328 282.968C24.0631 283.025 19.131 278.412 18.9037 272.559L13.1213 123.698C12.835 116.331 18.7783 110.174 26.2921 110.052Z" fill="#91B3FA"/>
<path opacity="0.53" d="M100.499 130.662L26.7889 130.856C26.6352 130.857 26.5104 130.733 26.5099 130.579L26.4941 124.587C26.4937 124.433 26.618 124.308 26.7716 124.308L100.482 124.114C100.635 124.113 100.76 124.237 100.761 124.391L100.776 130.383C100.777 130.537 100.653 130.662 100.499 130.662Z" fill="white"/>
<path opacity="0.53" d="M147 130.682L121.475 130.749C121.327 130.75 121.208 130.631 121.207 130.483L121.191 124.468C121.191 124.321 121.31 124.201 121.458 124.201L146.983 124.134C147.13 124.133 147.25 124.252 147.25 124.4L147.266 130.415C147.266 130.562 147.147 130.682 147 130.682Z" fill="white"/>
<path opacity="0.53" d="M203.678 130.533L153.061 130.666C152.827 130.667 152.637 130.477 152.636 130.243L152.621 124.543C152.621 124.309 152.81 124.118 153.044 124.118L203.661 123.984C203.895 123.984 204.086 124.173 204.086 124.408L204.102 130.108C204.102 130.342 203.913 130.532 203.678 130.533Z" fill="white"/>
<path opacity="0.53" d="M45.9145 142.315L26.8544 142.365C26.6201 142.366 26.4296 142.177 26.429 141.942L26.4141 136.242C26.4135 136.008 26.603 135.817 26.8372 135.817L45.8973 135.767C46.1317 135.766 46.3221 135.956 46.3227 136.19L46.3377 141.89C46.3382 142.124 46.1488 142.315 45.9145 142.315Z" fill="white"/>
<path opacity="0.53" d="M100.677 142.183L47.2224 142.323C47.0688 142.324 46.9439 142.2 46.9435 142.046L46.9277 136.054C46.9273 135.9 47.0516 135.775 47.2052 135.775L100.659 135.634C100.813 135.633 100.938 135.758 100.938 135.911L100.954 141.904C100.954 142.057 100.83 142.182 100.677 142.183Z" fill="white"/>
<path opacity="0.53" d="M147.24 142.203L121.715 142.27C121.568 142.27 121.448 142.151 121.448 142.004L121.432 135.989C121.431 135.841 121.55 135.721 121.698 135.721L147.223 135.654C147.37 135.654 147.49 135.773 147.49 135.92L147.506 141.935C147.507 142.082 147.388 142.202 147.24 142.203Z" fill="white"/>
<path opacity="0.53" d="M245.843 141.943L171.298 142.139C171.063 142.14 170.873 141.95 170.872 141.716L170.857 136.016C170.857 135.782 171.046 135.591 171.281 135.591L245.826 135.394C246.06 135.394 246.251 135.583 246.251 135.818L246.266 141.518C246.267 141.752 246.077 141.942 245.843 141.943Z" fill="white"/>
<path opacity="0.53" d="M45.9301 153.819L26.8701 153.87C26.6357 153.87 26.4452 153.681 26.4447 153.446L26.4297 147.746C26.4291 147.512 26.6186 147.322 26.8528 147.321L45.9129 147.271C46.1473 147.27 46.3377 147.46 46.3383 147.694L46.3533 153.394C46.354 153.628 46.1645 153.819 45.9301 153.819Z" fill="white"/>
<path opacity="0.53" d="M100.682 153.687L47.2283 153.828C47.0746 153.828 46.9498 153.704 46.9494 153.55L46.9336 147.558C46.9331 147.404 47.0574 147.279 47.2111 147.279L100.665 147.138C100.819 147.138 100.944 147.262 100.944 147.416L100.96 153.408C100.96 153.562 100.836 153.686 100.682 153.687Z" fill="white"/>
<path opacity="0.53" d="M147.25 153.707L121.725 153.774C121.577 153.774 121.458 153.655 121.457 153.508L121.441 147.493C121.441 147.345 121.56 147.225 121.708 147.225L147.233 147.158C147.38 147.158 147.5 147.277 147.5 147.424L147.516 153.439C147.516 153.586 147.397 153.706 147.25 153.707Z" fill="white"/>
<path opacity="0.53" d="M277.95 153.362L180.556 153.619C180.321 153.619 180.131 153.43 180.13 153.196L180.115 147.496C180.115 147.261 180.304 147.071 180.539 147.07L277.933 146.814C278.167 146.813 278.358 147.003 278.359 147.237L278.373 152.937C278.374 153.171 278.185 153.362 277.95 153.362Z" fill="white"/>
<path opacity="0.53" d="M46.1196 165.34L27.0595 165.39C26.8251 165.39 26.6347 165.201 26.6341 164.967L26.6191 159.267C26.6186 159.032 26.808 158.842 27.0423 158.841L46.1024 158.791C46.3367 158.79 46.5272 158.98 46.5278 159.214L46.5427 164.914C46.5434 165.149 46.354 165.339 46.1196 165.34Z" fill="white"/>
<path opacity="0.53" d="M100.997 165.207L47.5428 165.348C47.3891 165.348 47.2643 165.224 47.2638 165.07L47.248 159.078C47.2476 158.924 47.3719 158.799 47.5255 158.799L100.98 158.658C101.133 158.658 101.258 158.782 101.259 158.936L101.274 164.928C101.275 165.082 101.15 165.207 100.997 165.207Z" fill="white"/>
<path opacity="0.53" d="M147.49 165.227L121.965 165.294C121.818 165.294 121.698 165.175 121.698 165.028L121.682 159.013C121.681 158.865 121.8 158.746 121.948 158.745L147.473 158.678C147.62 158.678 147.74 158.797 147.74 158.944L147.756 164.959C147.757 165.107 147.637 165.226 147.49 165.227Z" fill="white"/>
<path opacity="0.53" d="M278.495 164.882L181.101 165.138C180.866 165.139 180.676 164.949 180.675 164.715L180.66 159.015C180.66 158.781 180.849 158.59 181.083 158.59L278.478 158.333C278.712 158.333 278.903 158.522 278.903 158.756L278.918 164.456C278.919 164.691 278.73 164.881 278.495 164.882Z" fill="white"/>
<path opacity="0.53" d="M46.0922 177.294L27.0322 177.344C26.7978 177.345 26.6073 177.156 26.6068 176.921L26.5918 171.221C26.5912 170.987 26.7807 170.796 27.015 170.796L46.075 170.746C46.3094 170.745 46.4999 170.935 46.5004 171.169L46.5154 176.869C46.5161 177.103 46.3266 177.294 46.0922 177.294Z" fill="white"/>
<path opacity="0.53" d="M100.921 177.162L47.4666 177.303C47.3129 177.303 47.1881 177.179 47.1876 177.025L47.1719 171.033C47.1714 170.879 47.2957 170.754 47.4494 170.754L100.903 170.613C101.057 170.613 101.182 170.737 101.182 170.891L101.198 176.883C101.198 177.036 101.074 177.161 100.921 177.162Z" fill="white"/>
<path opacity="0.53" d="M147.443 177.181L121.918 177.249C121.771 177.249 121.651 177.13 121.651 176.982L121.635 170.968C121.634 170.82 121.754 170.7 121.901 170.7L147.426 170.633C147.574 170.632 147.693 170.752 147.694 170.899L147.709 176.914C147.71 177.061 147.591 177.181 147.443 177.181Z" fill="white"/>
<path opacity="0.53" d="M278.333 176.837L180.939 177.093C180.704 177.094 180.514 176.904 180.513 176.67L180.498 170.97C180.497 170.736 180.687 170.545 180.921 170.545L278.316 170.288C278.55 170.288 278.741 170.477 278.741 170.711L278.756 176.411C278.757 176.646 278.567 176.836 278.333 176.837Z" fill="white"/>
<path opacity="0.53" d="M46.2817 188.815L27.2216 188.865C26.9873 188.865 26.7968 188.676 26.7962 188.442L26.7813 182.741C26.7807 182.507 26.9701 182.317 27.2044 182.316L46.2645 182.266C46.4988 182.265 46.6893 182.455 46.6899 182.689L46.7048 188.389C46.7055 188.623 46.5161 188.814 46.2817 188.815Z" fill="white"/>
<path opacity="0.53" d="M101.235 188.682L47.781 188.823C47.6274 188.823 47.5025 188.699 47.5021 188.545L47.4863 182.553C47.4859 182.399 47.6102 182.274 47.7638 182.274L101.218 182.133C101.372 182.133 101.496 182.257 101.497 182.411L101.513 188.403C101.513 188.557 101.389 188.681 101.235 188.682Z" fill="white"/>
<path opacity="0.53" d="M147.683 188.702L122.158 188.769C122.011 188.769 121.891 188.65 121.891 188.503L121.875 182.488C121.875 182.34 121.994 182.221 122.141 182.22L147.666 182.153C147.814 182.153 147.934 182.272 147.934 182.419L147.95 188.434C147.95 188.581 147.831 188.701 147.683 188.702Z" fill="white"/>
<path opacity="0.53" d="M212.556 188.531L153.214 188.687C152.979 188.688 152.789 188.498 152.788 188.264L152.773 182.564C152.773 182.329 152.962 182.139 153.197 182.138L212.539 181.982C212.773 181.981 212.964 182.171 212.964 182.405L212.979 188.105C212.98 188.34 212.79 188.53 212.556 188.531Z" fill="white"/>
<path opacity="0.53" d="M101.28 200.186L27.1658 200.381C27.0121 200.381 26.8873 200.257 26.8868 200.103L26.8711 194.111C26.8706 193.957 26.9949 193.832 27.1486 193.832L101.263 193.637C101.417 193.637 101.542 193.761 101.542 193.914L101.558 199.907C101.558 200.061 101.434 200.185 101.28 200.186Z" fill="white"/>
<path opacity="0.53" d="M147.693 200.206L122.168 200.273C122.021 200.273 121.901 200.154 121.901 200.007L121.885 193.992C121.884 193.844 122.004 193.725 122.151 193.724L147.676 193.657C147.824 193.657 147.943 193.776 147.944 193.923L147.959 199.938C147.96 200.085 147.841 200.205 147.693 200.206Z" fill="white"/>
<path opacity="0.53" d="M241.002 199.96L166.81 200.155C166.575 200.156 166.385 199.966 166.384 199.732L166.369 194.032C166.369 193.798 166.558 193.607 166.792 193.607L240.985 193.411C241.219 193.411 241.41 193.6 241.411 193.834L241.425 199.534C241.426 199.769 241.237 199.959 241.002 199.96Z" fill="white"/>
<path opacity="0.53" d="M45.7397 211.841L27.4755 211.889C27.2412 211.89 27.0507 211.7 27.0501 211.466L27.0352 205.766C27.0346 205.531 27.2241 205.341 27.4583 205.34L45.7225 205.292C45.9569 205.292 46.1473 205.481 46.1479 205.716L46.1629 211.416C46.1634 211.65 45.974 211.84 45.7397 211.841Z" fill="white"/>
<path opacity="0.53" d="M101.553 211.706L48.0994 211.847C47.9457 211.847 47.8209 211.723 47.8204 211.569L47.8047 205.577C47.8042 205.423 47.9285 205.298 48.0822 205.298L101.536 205.157C101.69 205.157 101.815 205.281 101.815 205.435L101.831 211.427C101.831 211.581 101.707 211.706 101.553 211.706Z" fill="white"/>
<path opacity="0.53" d="M147.933 211.726L122.408 211.793C122.261 211.793 122.141 211.674 122.141 211.527L122.125 205.512C122.125 205.365 122.244 205.245 122.391 205.244L147.916 205.177C148.064 205.177 148.184 205.296 148.184 205.443L148.2 211.458C148.2 211.606 148.081 211.726 147.933 211.726Z" fill="white"/>
<path opacity="0.53" d="M279.07 211.381L178.339 211.646C178.105 211.646 177.914 211.457 177.914 211.223L177.898 205.523C177.898 205.288 178.087 205.098 178.322 205.097L279.053 204.832C279.288 204.831 279.478 205.021 279.479 205.255L279.494 210.955C279.494 211.19 279.305 211.38 279.07 211.381Z" fill="white"/>
<path opacity="0.53" d="M46.1645 246.22L27.1044 246.27C26.8701 246.271 26.6796 246.082 26.679 245.847L26.6641 240.147C26.6635 239.913 26.853 239.722 27.0872 239.722L46.1473 239.672C46.3817 239.671 46.5721 239.86 46.5727 240.095L46.5877 245.795C46.5883 246.029 46.3989 246.22 46.1645 246.22Z" fill="white"/>
<path opacity="0.53" d="M101.145 246.088L47.6912 246.228C47.5375 246.229 47.4127 246.104 47.4122 245.951L47.3965 239.958C47.396 239.805 47.5203 239.68 47.674 239.679L101.128 239.539C101.282 239.538 101.407 239.663 101.407 239.816L101.423 245.809C101.423 245.962 101.299 246.087 101.145 246.088Z" fill="white"/>
<path opacity="0.53" d="M147.566 246.107L122.041 246.174C121.894 246.175 121.774 246.056 121.774 245.908L121.758 239.893C121.757 239.746 121.877 239.626 122.024 239.626L147.549 239.559C147.696 239.558 147.816 239.677 147.817 239.825L147.833 245.84C147.833 245.987 147.714 246.107 147.566 246.107Z" fill="white"/>
<path opacity="0.53" d="M212.441 245.936L153.099 246.093C152.864 246.093 152.674 245.904 152.673 245.67L152.658 239.969C152.658 239.735 152.847 239.545 153.081 239.544L212.423 239.388C212.658 239.387 212.848 239.577 212.849 239.811L212.864 245.511C212.865 245.745 212.675 245.936 212.441 245.936Z" fill="white"/>
<path opacity="0.53" d="M101.189 257.592L27.074 257.787C26.9204 257.787 26.7955 257.663 26.7951 257.509L26.7793 251.517C26.7788 251.363 26.9031 251.238 27.0568 251.238L101.171 251.043C101.325 251.043 101.45 251.167 101.45 251.32L101.466 257.313C101.467 257.467 101.342 257.591 101.189 257.592Z" fill="white"/>
<path opacity="0.53" d="M147.578 257.611L122.053 257.678C121.906 257.679 121.786 257.56 121.785 257.412L121.77 251.397C121.769 251.25 121.888 251.13 122.036 251.13L147.561 251.063C147.708 251.062 147.828 251.181 147.828 251.329L147.844 257.344C147.845 257.491 147.726 257.611 147.578 257.611Z" fill="white"/>
<path opacity="0.53" d="M240.846 257.366L166.653 257.561C166.419 257.562 166.228 257.372 166.228 257.138L166.213 251.438C166.212 251.204 166.402 251.013 166.636 251.012L240.829 250.817C241.063 250.816 241.254 251.006 241.254 251.24L241.269 256.94C241.27 257.175 241.08 257.365 240.846 257.366Z" fill="white"/>
<path opacity="0.53" d="M45.6225 269.247L27.3583 269.295C27.124 269.295 26.9335 269.106 26.9329 268.872L26.918 263.171C26.9174 262.937 27.1069 262.747 27.3411 262.746L45.6053 262.698C45.8397 262.697 46.0301 262.887 46.0307 263.121L46.0457 268.821C46.0464 269.055 45.8568 269.246 45.6225 269.247Z" fill="white"/>
<path opacity="0.53" d="M101.464 269.112L48.0096 269.253C47.8559 269.253 47.7311 269.129 47.7306 268.975L47.7148 262.983C47.7144 262.829 47.8387 262.704 47.9923 262.704L101.446 262.563C101.6 262.563 101.725 262.687 101.725 262.84L101.741 268.833C101.741 268.987 101.617 269.112 101.464 269.112Z" fill="white"/>
<path opacity="0.53" d="M147.818 269.132L122.293 269.199C122.146 269.199 122.026 269.08 122.026 268.932L122.01 262.918C122.009 262.77 122.129 262.65 122.276 262.65L147.801 262.583C147.948 262.582 148.068 262.702 148.069 262.849L148.085 268.864C148.085 269.011 147.966 269.131 147.818 269.132Z" fill="white"/>
<path opacity="0.53" d="M278.914 268.786L178.183 269.052C177.948 269.052 177.758 268.863 177.757 268.628L177.742 262.928C177.742 262.694 177.931 262.503 178.165 262.503L278.897 262.238C279.131 262.237 279.322 262.427 279.322 262.661L279.337 268.361C279.338 268.595 279.148 268.786 278.914 268.786Z" fill="white"/>
<path opacity="0.53" d="M45.5464 223.559L27.2822 223.607C27.0478 223.607 26.8573 223.418 26.8568 223.184L26.8418 217.483C26.8412 217.249 27.0307 217.059 27.265 217.058L45.5291 217.01C45.7635 217.009 45.954 217.199 45.9545 217.433L45.9695 223.133C45.9702 223.368 45.7807 223.558 45.5464 223.559Z" fill="white"/>
<path opacity="0.53" d="M101.171 223.424L47.7166 223.565C47.5629 223.566 47.4381 223.441 47.4376 223.288L47.4219 217.295C47.4214 217.141 47.5457 217.017 47.6994 217.016L101.153 216.875C101.307 216.875 101.432 216.999 101.432 217.153L101.448 223.145C101.448 223.299 101.324 223.424 101.171 223.424Z" fill="white"/>
<path opacity="0.53" d="M147.66 223.444L122.135 223.511C121.988 223.511 121.868 223.392 121.867 223.245L121.852 217.23C121.851 217.083 121.97 216.963 122.118 216.962L147.643 216.895C147.79 216.895 147.91 217.014 147.91 217.161L147.926 223.176C147.927 223.324 147.807 223.444 147.66 223.444Z" fill="white"/>
<path opacity="0.53" d="M278.324 223.1L177.593 223.365C177.358 223.366 177.168 223.176 177.167 222.942L177.152 217.242C177.152 217.008 177.341 216.817 177.576 216.816L278.307 216.551C278.541 216.551 278.732 216.74 278.732 216.974L278.747 222.674C278.748 222.909 278.559 223.099 278.324 223.1Z" fill="white"/>
<path opacity="0.53" d="M45.73 235.079L27.4658 235.127C27.2314 235.128 27.0409 234.938 27.0404 234.704L27.0254 229.004C27.0248 228.769 27.2143 228.579 27.4485 228.578L45.7127 228.53C45.9471 228.53 46.1376 228.719 46.1381 228.954L46.1531 234.654C46.1538 234.888 45.9643 235.078 45.73 235.079Z" fill="white"/>
<path opacity="0.53" d="M101.485 234.944L48.031 235.085C47.8774 235.086 47.7525 234.961 47.7521 234.808L47.7363 228.815C47.7359 228.662 47.8602 228.537 48.0138 228.536L101.468 228.396C101.622 228.395 101.746 228.519 101.747 228.673L101.763 234.665C101.763 234.819 101.639 234.944 101.485 234.944Z" fill="white"/>
<path opacity="0.53" d="M147.9 234.964L122.375 235.031C122.228 235.032 122.108 234.913 122.108 234.765L122.092 228.75C122.091 228.603 122.211 228.483 122.358 228.483L147.883 228.416C148.03 228.415 148.15 228.534 148.151 228.682L148.167 234.697C148.167 234.844 148.048 234.964 147.9 234.964Z" fill="white"/>
<path opacity="0.53" d="M278.889 234.619L178.157 234.885C177.923 234.885 177.732 234.696 177.732 234.461L177.717 228.761C177.716 228.527 177.906 228.336 178.14 228.336L278.871 228.071C279.106 228.07 279.296 228.259 279.297 228.494L279.312 234.194C279.312 234.428 279.123 234.619 278.889 234.619Z" fill="white"/>
<path opacity="0.53" d="M112.899 276.838L110.807 276.843C110.721 276.843 110.651 276.774 110.651 276.688L110.227 115.615C110.226 115.529 110.296 115.459 110.382 115.459L112.474 115.453C112.56 115.453 112.63 115.522 112.63 115.608L113.054 276.681C113.055 276.767 112.985 276.837 112.899 276.838Z" fill="white"/>
<path d="M181.307 305.975H36.6251C35.3317 305.975 34.2832 307.024 34.2832 308.317C34.2832 309.611 35.3317 310.659 36.6251 310.659H181.307C182.6 310.659 183.649 309.611 183.649 308.317C183.649 307.024 182.6 305.975 181.307 305.975Z" fill="url(#paint4_linear_350_424)"/>
<path d="M160.813 282.164H57.1175C53.9912 282.164 51.457 284.698 51.457 287.824V305.975H166.474V287.824C166.474 284.698 163.94 282.164 160.813 282.164Z" fill="url(#paint5_linear_350_424)"/>
<path d="M153.142 272.05H64.7893C61.6632 272.05 59.1289 274.584 59.1289 277.71V282.164H158.802V277.71C158.802 274.584 156.268 272.05 153.142 272.05Z" fill="url(#paint6_linear_350_424)"/>
<path d="M135.581 272.05H82.3516V243.641C82.3516 242.854 82.9897 242.216 83.7768 242.216H134.155C134.943 242.216 135.581 242.854 135.581 243.641V272.05Z" fill="url(#paint7_linear_350_424)"/>
<path d="M22.1653 156.863C20.8683 158.057 20.7555 160.066 21.9106 161.398L94.749 246.454C95.9537 247.843 98.0679 247.961 99.4205 246.716L105.617 241.01L25.3987 153.886L22.1653 156.863Z" fill="url(#paint8_linear_350_424)"/>
<path d="M32.139 129.536C29.6594 126.952 25.568 126.825 22.9331 129.251L16.4006 135.266C13.7658 137.692 13.5549 141.78 15.9264 144.464L102.836 243.571L121.054 226.797C122.531 225.437 122.599 223.126 121.203 221.682L32.139 129.536Z" fill="url(#paint9_linear_350_424)"/>
<path d="M38.3712 150.302L37.6879 150.932C35.5722 152.88 35.4364 156.174 37.3843 158.289L83.2473 208.1C85.1953 210.216 88.4895 210.352 90.6051 208.404L91.2884 207.775C93.4041 205.827 93.54 202.533 91.592 200.417L45.729 150.606C43.7811 148.491 40.4868 148.355 38.3712 150.302Z" fill="url(#paint10_linear_350_424)"/>
<path d="M38.9902 149.741L37.0645 151.513L89.9776 208.989L91.9034 207.216L38.9902 149.741Z" fill="#7D97F4"/>
<path d="M109.572 259.018C122.395 259.018 132.791 248.622 132.791 235.799C132.791 222.976 122.395 212.581 109.572 212.581C96.7488 212.581 86.3535 222.976 86.3535 235.799C86.3535 248.622 96.7488 259.018 109.572 259.018Z" fill="url(#paint11_linear_350_424)"/>
<path d="M122.109 248.339C129.036 241.413 129.036 230.183 122.109 223.257C115.183 216.331 103.954 216.331 97.0274 223.257C90.1011 230.183 90.1011 241.413 97.0274 248.339C103.954 255.265 115.183 255.265 122.109 248.339Z" fill="#7D97F4"/>
<path d="M31.8652 141.602L37.6179 145.161C38.8735 145.937 40.5227 145.523 41.2618 144.245L85.7897 66.1184C86.4985 64.8929 86.1046 63.3259 84.9006 62.5811L81.899 60.7242L31.8652 141.602Z" fill="url(#paint12_linear_350_424)"/>
<path d="M80.1056 40.9239L86.1698 44.6754C88.6158 46.1886 89.4025 49.3802 87.9398 51.8567L34.4484 143.199L17.5366 132.737C16.1651 131.888 15.7615 130.077 16.6429 128.726L72.8894 42.5462C74.4526 40.1316 77.6595 39.4107 80.1056 40.9239Z" fill="url(#paint13_linear_350_424)"/>
<path d="M63.6643 63.9817L33.7542 112.33C32.4308 114.469 33.0921 117.276 35.2312 118.599C37.3703 119.923 40.1773 119.262 41.5006 117.122L71.4107 68.7738C72.734 66.6347 72.0728 63.8278 69.9336 62.5045C67.7946 61.1812 64.9877 61.8425 63.6643 63.9817Z" fill="url(#paint14_linear_350_424)"/>
<path d="M69.0362 61.9559L34.334 118.049L36.1216 119.155L70.8238 63.0618L69.0362 61.9559Z" fill="#7D97F4"/>
<path d="M27.9597 156.737C38.2572 156.737 46.6049 148.39 46.6049 138.092C46.6049 127.795 38.2572 119.447 27.9597 119.447C17.6622 119.447 9.31445 127.795 9.31445 138.092C9.31445 148.39 17.6622 156.737 27.9597 156.737Z" fill="url(#paint15_linear_350_424)"/>
<path d="M38.0289 148.162C43.5909 142.6 43.5909 133.583 38.0289 128.021C32.4669 122.459 23.4492 122.459 17.8872 128.021C12.3253 133.583 12.3253 142.6 17.8872 148.162C23.4492 153.724 32.4669 153.724 38.0289 148.162Z" fill="#7D97F4"/>
<path d="M142.656 73.3498L139.747 78.1321C138.574 80.061 136.452 80.9275 134.972 80.0817L80.3672 49.2225L88.4797 35.886C89.1375 34.8044 90.3386 34.344 91.1386 34.8666L142.192 68.2132C143.623 69.1381 143.829 71.4209 142.656 73.3498Z" fill="url(#paint16_linear_350_424)"/>
<path d="M87.71 57.8701C95.7931 57.8701 102.346 51.3174 102.346 43.2343C102.346 35.1512 95.7931 28.5985 87.71 28.5985C79.6269 28.5985 73.0742 35.1512 73.0742 43.2343C73.0742 51.3174 79.6269 57.8701 87.71 57.8701Z" fill="url(#paint17_linear_350_424)"/>
<path d="M98.8463 44.179C99.3699 38.0268 94.807 32.615 88.6548 32.0914C82.5026 31.5678 77.0908 36.1307 76.5672 42.2829C76.0436 48.4351 80.6065 53.8469 86.7587 54.3705C92.9109 54.8941 98.3227 50.3312 98.8463 44.179Z" fill="#7D97F4"/>
<path d="M151.891 74.7112L164.119 65.8832L181.062 86.4905L178.493 89.5237L163.174 73.0903L153.711 80.0172L151.891 74.7112Z" fill="url(#paint18_linear_350_424)"/>
<g opacity="0.3">
<path d="M211.7 41.7358C211.905 40.8954 212.716 40.3284 213.591 40.4474C215.507 40.7069 217.44 41.0538 219.336 41.4778C220.258 41.6841 220.839 42.599 220.633 43.5212C220.63 43.5322 220.627 43.5429 220.625 43.5536C220.405 44.457 219.5 45.0216 218.589 44.8177C216.788 44.4147 214.952 44.0854 213.132 43.8386C212.196 43.7119 211.539 42.8497 211.666 41.9129C211.674 41.8527 211.686 41.7936 211.7 41.7358ZM226.157 45.3736C226.173 45.3087 226.193 45.2437 226.217 45.1794C226.547 44.2939 227.533 43.8433 228.418 44.1734C230.237 44.8518 232.045 45.6146 233.791 46.4406C234.646 46.8447 235.01 47.8605 234.607 48.7194C234.203 49.5737 233.182 49.9383 232.328 49.5345C230.668 48.7494 228.951 48.0249 227.222 47.3806C226.401 47.0744 225.955 46.2045 226.157 45.3736ZM239.454 52.1042C239.499 51.9191 239.576 51.7383 239.687 51.5699C240.206 50.7805 241.267 50.5605 242.057 51.0795C243.676 52.1429 245.269 53.2905 246.791 54.49C247.533 55.0755 247.66 56.151 247.077 56.8933C246.492 57.6355 245.415 57.7633 244.673 57.1785C243.227 56.0392 241.715 54.95 240.177 53.9397C239.556 53.5316 239.287 52.7875 239.454 52.1042ZM250.914 61.6411C250.989 61.3353 251.149 61.0464 251.393 60.8125C252.075 60.1587 253.158 60.1821 253.812 60.8643C255.153 62.2644 256.45 63.7391 257.666 65.2476C258.258 65.9833 258.143 67.0601 257.407 67.6539C256.672 68.247 255.595 68.1312 255.001 67.3955C253.846 65.9629 252.615 64.5619 251.34 63.232C250.921 62.7935 250.78 62.1903 250.914 61.6411ZM259.96 73.494C260.064 73.065 260.334 72.6767 260.742 72.4318C261.553 71.9455 262.604 72.2087 263.09 73.0192C264.084 74.6776 265.022 76.4022 265.876 78.1447C266.292 78.993 265.942 80.0185 265.093 80.4344C264.244 80.8501 263.219 80.4995 262.802 79.6508C261.991 77.9944 261.1 76.3554 260.155 74.7793C259.914 74.3771 259.857 73.9161 259.96 73.494ZM266.158 87.0517C266.293 86.4961 266.704 86.0209 267.287 85.8295C268.185 85.5348 269.152 86.0237 269.447 86.9216C270.051 88.7618 270.584 90.6512 271.029 92.5366C271.247 93.4568 270.678 94.3783 269.758 94.5958C268.838 94.8134 267.916 94.2439 267.699 93.3243C267.275 91.5326 266.769 89.7378 266.195 87.9892C266.091 87.6743 266.085 87.3514 266.158 87.0517ZM255.265 148.939C255.321 148.708 255.426 148.487 255.582 148.288C256.717 146.842 257.805 145.327 258.814 143.785C259.331 142.994 260.392 142.773 261.182 143.29C261.973 143.807 262.195 144.868 261.678 145.659C260.615 147.283 259.47 148.879 258.274 150.402C257.69 151.145 256.615 151.274 255.871 150.691C255.326 150.263 255.111 149.57 255.265 148.939ZM269.195 101.636C269.363 100.947 269.953 100.408 270.699 100.338C271.64 100.25 272.474 100.942 272.562 101.883C272.742 103.812 272.84 105.772 272.854 107.709C272.856 108.653 272.1 109.426 271.154 109.432C270.21 109.439 269.438 108.678 269.431 107.733C269.419 105.893 269.325 104.032 269.155 102.201C269.137 102.006 269.151 101.816 269.195 101.636ZM263.09 136.25C263.117 136.141 263.155 136.032 263.205 135.926C263.988 134.261 264.71 132.541 265.35 130.812C265.679 129.926 266.664 129.474 267.55 129.802C268.436 130.131 268.892 131.116 268.56 132.002C267.885 133.82 267.126 135.631 266.302 137.382C265.9 138.238 264.88 138.605 264.025 138.202C263.276 137.85 262.902 137.025 263.09 136.25ZM268.898 116.534C269.103 115.695 269.912 115.128 270.787 115.245C271.724 115.37 272.381 116.231 272.257 117.168C272.001 119.086 271.658 121.019 271.238 122.912C271.236 122.924 271.233 122.936 271.23 122.948C271.01 123.85 270.108 124.414 269.197 124.212C268.274 124.008 267.692 123.094 267.897 122.171C268.296 120.373 268.621 118.537 268.864 116.714C268.873 116.653 268.884 116.593 268.898 116.534Z" fill="url(#paint19_linear_350_424)"/>
<path d="M247.02 157.68C247.099 157.352 247.276 157.045 247.548 156.805C248.209 156.22 248.869 155.612 249.51 154.998C250.191 154.344 251.275 154.366 251.929 155.048C252.584 155.73 252.562 156.814 251.879 157.467C251.205 158.114 250.511 158.753 249.815 159.368C249.108 159.994 248.026 159.928 247.4 159.22C247.014 158.784 246.891 158.206 247.02 157.68Z" fill="url(#paint20_linear_350_424)"/>
</g>
<g opacity="0.3">
<path d="M197.543 174.233C197.739 173.431 198.493 172.866 199.343 172.934C200.222 173.005 201.118 173.059 202.004 173.093C202.949 173.13 203.685 173.926 203.648 174.87C203.611 175.818 202.815 176.55 201.871 176.513C200.938 176.476 199.994 176.42 199.068 176.346C198.126 176.27 197.424 175.445 197.5 174.503C197.507 174.41 197.522 174.32 197.543 174.233Z" fill="url(#paint21_linear_350_424)"/>
<path d="M138.067 92.076C138.253 91.3111 138.454 90.5463 138.667 89.782C138.922 88.872 139.866 88.3404 140.776 88.5951C141.687 88.8496 142.22 89.7991 141.964 90.704C141.471 92.4679 141.05 94.2476 140.71 96.0146C140.53 96.9432 139.635 97.5503 138.707 97.3718C137.778 97.1932 137.17 96.2959 137.349 95.3679C137.559 94.275 137.801 93.1674 138.067 92.076ZM141.69 81.2681C141.713 81.1752 141.744 81.0827 141.783 80.9919C142.541 79.2396 143.382 77.4999 144.283 75.8215C144.729 74.9888 145.767 74.6757 146.599 75.1222C147.432 75.5691 147.747 76.6088 147.298 77.4392C146.443 79.0333 145.645 80.6861 144.924 82.3512C144.548 83.2184 143.541 83.6173 142.674 83.2421C141.897 82.9058 141.496 82.0633 141.69 81.2681ZM136.265 104.308C136.456 103.524 137.183 102.962 138.018 103.006C138.962 103.056 139.686 103.862 139.636 104.806C139.54 106.611 139.52 108.445 139.578 110.257C139.606 111.202 138.866 111.992 137.922 112.022C136.977 112.052 136.187 111.31 136.157 110.365C136.096 108.457 136.117 106.525 136.218 104.624C136.224 104.515 136.24 104.41 136.265 104.308ZM148.965 68.5248C149.017 68.3137 149.11 68.1094 149.246 67.923C150.369 66.3815 151.572 64.8695 152.821 63.4291C153.44 62.7152 154.521 62.6384 155.235 63.2576C155.949 63.8769 156.027 64.9571 155.407 65.6714C154.221 67.0392 153.078 68.4748 152.011 69.9389C151.455 70.7028 150.384 70.8704 149.62 70.3138C149.043 69.893 148.806 69.1784 148.965 68.5248ZM137.114 118.944C137.271 118.302 137.796 117.781 138.49 117.662C139.421 117.503 140.305 118.13 140.464 119.062C140.768 120.843 141.152 122.636 141.606 124.393C141.843 125.307 141.293 126.241 140.377 126.478C139.462 126.714 138.529 126.164 138.293 125.249C137.815 123.401 137.41 121.512 137.091 119.637C137.05 119.399 137.061 119.165 137.114 118.944ZM141.155 133.041C141.28 132.527 141.641 132.078 142.168 131.862C143.042 131.503 144.042 131.921 144.401 132.796C145.088 134.473 145.855 136.14 146.679 137.752C147.11 138.593 146.777 139.623 145.934 140.054C145.093 140.484 144.062 140.151 143.631 139.31C142.764 137.614 141.958 135.859 141.234 134.094C141.092 133.747 141.072 133.38 141.155 133.041ZM148.172 145.921C148.267 145.53 148.5 145.171 148.856 144.923C149.631 144.383 150.698 144.573 151.238 145.349C152.276 146.837 153.386 148.298 154.541 149.691C155.144 150.418 155.044 151.496 154.316 152.1C153.588 152.703 152.51 152.602 151.906 151.875C150.691 150.409 149.521 148.872 148.43 147.305C148.138 146.886 148.06 146.382 148.172 145.921ZM157.831 156.964C157.897 156.693 158.03 156.435 158.231 156.214C158.87 155.518 159.952 155.47 160.649 156.109C161.986 157.334 163.389 158.515 164.822 159.62C165.57 160.198 165.709 161.273 165.132 162.02C164.555 162.769 163.48 162.907 162.732 162.33C161.223 161.166 159.744 159.922 158.337 158.632C157.86 158.195 157.688 157.55 157.831 156.964ZM169.683 165.62C169.72 165.467 169.779 165.318 169.86 165.175C170.329 164.355 171.375 164.07 172.195 164.539C173.765 165.437 175.394 166.279 177.038 167.043C177.895 167.442 178.265 168.462 177.868 169.316C177.47 170.173 176.452 170.545 175.595 170.147C173.864 169.342 172.149 168.455 170.497 167.51C169.819 167.123 169.507 166.342 169.683 165.62ZM183.137 171.457C183.146 171.422 183.155 171.388 183.166 171.354C183.445 170.452 184.403 169.946 185.306 170.226C186.581 170.62 187.882 170.979 189.176 171.295C189.644 171.409 190.113 171.517 190.581 171.621C191.504 171.825 192.087 172.738 191.883 173.661C191.695 174.599 190.766 175.167 189.843 174.963C189.35 174.854 188.858 174.74 188.365 174.62C187.005 174.288 185.635 173.91 184.295 173.495C183.426 173.226 182.925 172.328 183.137 171.457Z" fill="url(#paint22_linear_350_424)"/>
<path d="M158.9 57.6702C158.981 57.3396 159.16 57.0301 159.435 56.7891C160.132 56.1789 160.855 55.5719 161.585 54.9849C162.321 54.3921 163.398 54.5084 163.991 55.2446C164.583 55.9811 164.468 57.0576 163.731 57.6506C163.038 58.2083 162.351 58.785 161.689 59.3642C160.979 59.9867 159.898 59.9151 159.275 59.204C158.894 58.7679 158.773 58.193 158.9 57.6702Z" fill="url(#paint23_linear_350_424)"/>
</g>
<path d="M177.638 64.6143C177.33 64.7613 177.149 65.0874 177.187 65.4265L178.288 75.0984C174.74 77.9406 171.62 81.369 169.094 85.3073L159.367 85.2295C159.026 85.2267 158.72 85.4408 158.606 85.7626L154.712 96.77C154.598 97.0919 154.701 97.4502 154.968 97.6626L162.58 103.72C162.067 108.37 162.336 112.998 163.308 117.439L156.369 124.267C156.126 124.506 156.062 124.873 156.209 125.181L161.238 135.718C161.385 136.026 161.712 136.207 162.051 136.169L171.722 135.068C174.565 138.616 177.993 141.736 181.931 144.261L181.853 153.989C181.851 154.33 182.065 154.636 182.386 154.75L193.394 158.644C193.716 158.758 194.074 158.655 194.287 158.388L200.344 150.776C204.994 151.289 209.622 151.02 214.062 150.048L220.89 156.986C221.13 157.229 221.497 157.294 221.805 157.147L232.342 152.117C232.65 151.971 232.831 151.644 232.792 151.305L231.692 141.633C235.24 138.791 238.36 135.363 240.885 131.425L250.613 131.502C250.954 131.505 251.259 131.291 251.373 130.97L255.268 119.962C255.382 119.64 255.279 119.282 255.012 119.069L247.4 113.012C247.913 108.362 247.643 103.734 246.672 99.2932L253.61 92.4654C253.853 92.2262 253.918 91.8587 253.771 91.5509L248.741 81.0136C248.594 80.7057 248.268 80.525 247.929 80.5635L238.257 81.6638C235.415 78.1159 231.987 74.9958 228.048 72.4706L228.126 62.7427C228.129 62.4017 227.915 62.0961 227.593 61.9825L216.586 58.088C216.264 57.9742 215.906 58.0769 215.693 58.3438L209.636 65.9561C204.986 65.4427 200.358 65.7125 195.917 66.6836L189.089 59.7456C188.85 59.5023 188.483 59.4378 188.175 59.5847L177.638 64.6143Z" fill="url(#paint24_linear_350_424)"/>
<path opacity="0.7" d="M193.588 105.578C194.942 100.02 200.214 96.1343 206.076 96.6797C212.521 97.2795 217.275 103.009 216.675 109.453C216.386 112.575 214.896 115.397 212.484 117.398C210.071 119.4 207.024 120.343 203.902 120.052C197.458 119.452 192.704 113.722 193.303 107.279C193.357 106.698 193.453 106.13 193.588 105.578ZM213.729 110.516C213.834 110.087 213.908 109.648 213.949 109.2C214.409 104.259 210.763 99.8657 205.823 99.4058C200.883 98.9462 196.487 102.59 196.029 107.532C195.569 112.473 199.215 116.866 204.155 117.326C206.549 117.549 208.885 116.826 210.735 115.291C212.239 114.043 213.274 112.38 213.729 110.516Z" fill="white"/>
<path opacity="0.7" d="M177.063 101.797C177.295 100.842 177.577 99.8937 177.91 98.9547C178.014 98.6592 178.123 98.3653 178.237 98.0731C178.8 96.6328 179.476 95.2396 180.255 93.9149C180.265 93.8969 180.276 93.8787 180.287 93.8607C180.317 93.8096 180.347 93.7586 180.378 93.7076C180.438 93.6082 180.498 93.5095 180.559 93.411C180.718 93.152 181.022 93.0365 181.303 93.1046C181.371 93.1213 181.438 93.1488 181.501 93.1876C181.823 93.3858 181.921 93.8075 181.724 94.1292C180.703 95.7851 179.854 97.5622 179.201 99.4111C175.95 108.594 177.892 118.375 183.486 125.534C186.598 129.517 190.839 132.689 195.947 134.496C196.843 134.813 197.748 135.082 198.658 135.304C204.786 136.797 211.188 136.143 216.957 133.389C223.584 130.226 228.582 124.672 231.031 117.75C236.088 103.453 228.574 87.7203 214.285 82.6649C213.404 82.3531 212.51 82.0872 211.608 81.8676C207.699 80.9153 203.625 80.829 199.678 81.6293C199.576 81.6499 199.475 81.6468 199.38 81.6234C199.131 81.5626 198.926 81.3629 198.871 81.0944C198.798 80.7235 199.035 80.3623 199.407 80.2875C203.55 79.4475 207.828 79.5377 211.932 80.5374C212.879 80.7679 213.816 81.0472 214.741 81.3741C229.744 86.6818 237.628 103.209 232.322 118.206C229.751 125.473 224.504 131.304 217.547 134.624C211.491 137.515 204.77 138.202 198.337 136.635C197.381 136.402 196.431 136.119 195.491 135.787C188.223 133.215 182.392 127.968 179.072 121.012C176.18 114.954 175.494 108.231 177.063 101.797Z" fill="white"/>
<path d="M149.418 69.7445L144.09 66.5316C143.973 66.4615 143.822 66.4988 143.752 66.6152L134.086 82.6442C134.016 82.7605 134.053 82.9117 134.17 82.9818L139.498 86.1947C139.614 86.2648 139.765 86.2274 139.835 86.111L149.501 70.0821C149.572 69.9658 149.534 69.8146 149.418 69.7445Z" fill="url(#paint25_linear_350_424)"/>
<path d="M148.702 89.2988L146.818 104.262L173.026 109.251L174.456 105.542L152.69 99.9781L154.232 88.3524L148.702 89.2988Z" fill="url(#paint26_linear_350_424)"/>
<path d="M144.754 88.9092C147.269 90.9699 150.78 91.6795 154.05 90.4691C158.955 88.6536 161.459 83.2058 159.643 78.3014C158.724 75.8193 156.875 73.9519 154.637 72.9482L144.754 88.9092Z" fill="url(#paint27_linear_350_424)"/>
<path d="M139.373 85.5873L137.826 88.1525C137.547 88.6152 137.722 89.2324 138.217 89.5309L142.974 92.399C143.469 92.6977 144.096 92.5646 144.375 92.1019L156.709 71.6492C156.988 71.1865 156.813 70.5694 156.318 70.2707L151.561 67.4026C151.066 67.104 150.439 67.237 150.16 67.6997L148.742 70.0501L139.373 85.5873Z" fill="url(#paint28_linear_350_424)"/>
<g opacity="0.3">
<path d="M219.723 158.552C219.717 158.06 220.084 157.633 220.584 157.574C221.677 157.447 222.791 157.365 223.897 157.331C224.435 157.314 224.884 157.736 224.901 158.274C224.901 158.28 224.901 158.287 224.901 158.293C224.907 158.822 224.489 159.261 223.957 159.278C222.907 159.31 221.848 159.388 220.81 159.509C220.275 159.572 219.791 159.189 219.729 158.655C219.725 158.62 219.723 158.586 219.723 158.552ZM228.209 158.515C228.209 158.477 228.21 158.438 228.214 158.399C228.271 157.864 228.751 157.476 229.286 157.533C230.385 157.65 231.49 157.815 232.57 158.024C233.098 158.126 233.442 158.635 233.341 159.165C233.239 159.693 232.728 160.039 232.2 159.937C231.174 159.738 230.124 159.582 229.08 159.471C228.584 159.418 228.215 159.001 228.209 158.515ZM236.493 160.346C236.491 160.238 236.508 160.128 236.546 160.019C236.72 159.51 237.274 159.239 237.783 159.413C238.826 159.771 239.867 160.179 240.876 160.625C241.368 160.843 241.59 161.418 241.373 161.91C241.155 162.402 240.58 162.624 240.088 162.407C239.13 161.983 238.142 161.596 237.151 161.256C236.751 161.119 236.497 160.747 236.493 160.346ZM244.16 163.985C244.158 163.806 244.206 163.624 244.307 163.461C244.591 163.004 245.192 162.864 245.649 163.147C246.586 163.73 247.509 164.36 248.393 165.02C248.824 165.342 248.912 165.952 248.591 166.383C248.269 166.814 247.659 166.903 247.227 166.581C246.388 165.954 245.511 165.356 244.62 164.802C244.327 164.62 244.164 164.307 244.16 163.985ZM250.824 169.243C250.821 168.991 250.915 168.739 251.105 168.546C251.483 168.164 252.1 168.16 252.483 168.538C253.265 169.312 254.026 170.131 254.743 170.971C255.093 171.38 255.045 171.995 254.635 172.344C254.226 172.694 253.611 172.645 253.262 172.236C252.58 171.437 251.857 170.659 251.113 169.924C250.923 169.736 250.827 169.49 250.824 169.243ZM256.158 175.843C256.154 175.517 256.313 175.197 256.608 175.009C257.061 174.72 257.664 174.853 257.953 175.306C258.546 176.235 259.107 177.202 259.62 178.179C259.87 178.655 259.686 179.244 259.209 179.494C258.733 179.744 258.144 179.56 257.894 179.084C257.407 178.156 256.875 177.237 256.311 176.354C256.209 176.195 256.16 176.018 256.158 175.843ZM258.9 211.508C258.898 211.374 258.924 211.236 258.982 211.105C259.404 210.147 259.79 209.158 260.128 208.165C260.302 207.656 260.855 207.384 261.364 207.557C261.873 207.731 262.145 208.284 261.972 208.794C261.615 209.839 261.21 210.881 260.766 211.89C260.549 212.383 259.974 212.606 259.482 212.389C259.12 212.23 258.904 211.879 258.9 211.508ZM259.894 183.456C259.89 183.052 260.139 182.671 260.54 182.527C261.047 182.346 261.605 182.609 261.786 183.116C262.158 184.154 262.489 185.221 262.77 186.287C262.905 186.808 262.597 187.34 262.077 187.477C261.557 187.615 261.024 187.304 260.886 186.784C260.619 185.771 260.305 184.758 259.952 183.772C259.915 183.668 259.896 183.561 259.894 183.456ZM261.421 203.406C261.42 203.341 261.426 203.276 261.438 203.211C261.635 202.182 261.789 201.131 261.899 200.088C261.955 199.552 262.434 199.164 262.969 199.22C263.504 199.276 263.895 199.755 263.836 200.29C263.721 201.388 263.559 202.494 263.352 203.576C263.251 204.105 262.741 204.451 262.212 204.35C261.75 204.262 261.426 203.859 261.421 203.406ZM261.837 191.713C261.831 191.221 262.197 190.794 262.696 190.735C263.23 190.671 263.714 191.053 263.778 191.587C263.908 192.681 263.992 193.795 264.028 194.899C264.029 194.906 264.029 194.913 264.029 194.92C264.035 195.448 263.618 195.887 263.087 195.904C262.549 195.922 262.099 195.501 262.082 194.963C262.047 193.915 261.967 192.856 261.843 191.817C261.839 191.782 261.837 191.747 261.837 191.713Z" fill="url(#paint29_linear_350_424)"/>
<path d="M255.59 217.494C255.588 217.302 255.642 217.108 255.758 216.937C256.04 216.521 256.317 216.093 256.584 215.663C256.867 215.206 257.468 215.065 257.925 215.349C258.382 215.632 258.524 216.233 258.239 216.69C257.959 217.142 257.667 217.593 257.37 218.03C257.069 218.475 256.463 218.592 256.018 218.29C255.743 218.104 255.594 217.802 255.59 217.494Z" fill="url(#paint30_linear_350_424)"/>
</g>
<g opacity="0.3">
<path d="M230.647 233.616C230.641 233.145 230.977 232.728 231.455 232.645C231.95 232.56 232.452 232.463 232.945 232.356C233.471 232.243 233.99 232.578 234.103 233.104C234.216 233.632 233.881 234.148 233.355 234.261C232.835 234.373 232.307 234.475 231.786 234.565C231.256 234.657 230.752 234.301 230.661 233.771C230.652 233.719 230.647 233.667 230.647 233.616Z" fill="url(#paint31_linear_350_424)"/>
<path d="M186.235 196.72C186.23 196.271 186.232 195.821 186.242 195.37C186.254 194.832 186.699 194.405 187.237 194.417C187.775 194.429 188.204 194.877 188.19 195.412C188.168 196.455 188.187 197.495 188.249 198.518C188.281 199.055 187.874 199.517 187.337 199.549C186.799 199.582 186.337 199.173 186.305 198.636C186.266 198.004 186.243 197.359 186.235 196.72ZM186.705 190.248C186.705 190.193 186.709 190.138 186.718 190.082C186.888 189.009 187.106 187.931 187.365 186.878C187.494 186.355 188.021 186.036 188.543 186.165C189.066 186.293 189.387 186.822 189.256 187.344C189.01 188.344 188.804 189.368 188.641 190.388C188.557 190.919 188.058 191.281 187.527 191.197C187.051 191.121 186.711 190.713 186.705 190.248ZM186.971 203.719C186.965 203.26 187.286 202.847 187.753 202.754C188.281 202.648 188.794 202.99 188.9 203.517C189.102 204.526 189.35 205.54 189.638 206.532C189.788 207.049 189.491 207.589 188.975 207.739C188.458 207.889 187.917 207.592 187.767 207.075C187.464 206.031 187.203 204.963 186.99 203.9C186.977 203.839 186.971 203.779 186.971 203.719ZM188.916 182.192C188.914 182.069 188.937 181.943 188.985 181.821C189.387 180.812 189.837 179.808 190.322 178.837C190.562 178.356 191.147 178.161 191.628 178.401C192.11 178.642 192.305 179.227 192.064 179.708C191.604 180.63 191.177 181.583 190.795 182.541C190.597 183.041 190.03 183.285 189.53 183.086C189.152 182.936 188.92 182.575 188.916 182.192ZM189.508 211.67C189.503 211.293 189.719 210.932 190.085 210.769C190.577 210.549 191.153 210.77 191.372 211.261C191.791 212.201 192.256 213.135 192.755 214.039C193.015 214.511 192.844 215.103 192.372 215.363C191.901 215.623 191.309 215.451 191.049 214.98C190.524 214.028 190.034 213.044 189.593 212.055C189.537 211.93 189.509 211.799 189.508 211.67ZM193.729 218.872C193.725 218.571 193.861 218.272 194.121 218.079C194.552 217.757 195.162 217.847 195.484 218.278C196.1 219.106 196.759 219.917 197.441 220.689C197.797 221.092 197.759 221.707 197.356 222.064C196.952 222.42 196.337 222.382 195.98 221.979C195.263 221.166 194.57 220.312 193.921 219.442C193.794 219.27 193.731 219.071 193.729 218.872ZM199.419 224.983C199.416 224.754 199.494 224.523 199.655 224.336C200.006 223.928 200.621 223.882 201.029 224.234C201.811 224.908 202.63 225.556 203.464 226.161C203.899 226.477 203.997 227.085 203.68 227.521C203.364 227.957 202.755 228.054 202.32 227.738C201.442 227.101 200.58 226.419 199.757 225.71C199.537 225.52 199.422 225.252 199.419 224.983ZM206.306 229.707C206.304 229.548 206.341 229.387 206.421 229.237C206.674 228.762 207.264 228.583 207.739 228.837C208.649 229.323 209.59 229.776 210.537 230.183C211.031 230.396 211.259 230.969 211.047 231.463C210.834 231.957 210.261 232.185 209.767 231.973C208.77 231.544 207.779 231.067 206.821 230.555C206.496 230.381 206.31 230.05 206.306 229.707ZM214.065 232.804C214.064 232.715 214.075 232.624 214.1 232.534C214.243 232.015 214.779 231.71 215.297 231.853C216.29 232.126 217.307 232.361 218.322 232.55C218.851 232.648 219.199 233.158 219.101 233.686C219.003 234.215 218.494 234.563 217.965 234.465C216.897 234.266 215.826 234.019 214.781 233.732C214.353 233.614 214.07 233.227 214.065 232.804ZM222.309 234.121C222.309 234.101 222.31 234.081 222.31 234.061C222.337 233.523 222.794 233.109 223.331 233.136C224.09 233.173 224.858 233.187 225.616 233.178C225.89 233.175 226.164 233.169 226.437 233.159C226.975 233.141 227.426 233.563 227.443 234.1C227.472 234.644 227.04 235.089 226.503 235.107C226.216 235.116 225.928 235.123 225.639 235.126C224.842 235.136 224.033 235.121 223.236 235.081C222.718 235.056 222.315 234.632 222.309 234.121Z" fill="url(#paint32_linear_350_424)"/>
<path d="M192.859 174.802C192.857 174.609 192.912 174.413 193.03 174.241C193.328 173.806 193.641 173.369 193.96 172.942C194.282 172.511 194.893 172.423 195.324 172.745C195.754 173.068 195.843 173.678 195.52 174.109C195.217 174.514 194.92 174.929 194.637 175.342C194.333 175.786 193.727 175.899 193.283 175.595C193.011 175.409 192.863 175.109 192.859 174.802Z" fill="url(#paint33_linear_350_424)"/>
</g>
<path d="M204.173 175.983C204.024 176.108 203.97 176.313 204.039 176.495L206.013 181.672C204.458 183.741 203.222 186.073 202.387 188.601L197.012 189.934C196.823 189.98 196.685 190.142 196.668 190.335L196.076 196.955C196.059 197.149 196.166 197.332 196.343 197.411L201.397 199.675C201.771 202.312 202.574 204.826 203.738 207.138L200.877 211.883C200.777 212.05 200.793 212.261 200.918 212.41L205.181 217.51C205.305 217.659 205.511 217.713 205.692 217.643L210.87 215.669C212.939 217.224 215.27 218.46 217.799 219.296L219.131 224.671C219.178 224.859 219.339 224.997 219.532 225.015L226.153 225.606C226.346 225.624 226.529 225.516 226.609 225.339L228.873 220.285C231.51 219.911 234.023 219.108 236.335 217.945L241.081 220.806C241.247 220.906 241.459 220.889 241.608 220.765L246.707 216.502C246.856 216.377 246.91 216.172 246.841 215.99L244.867 210.813C246.421 208.744 247.657 206.412 248.493 203.884L253.868 202.551C254.057 202.505 254.195 202.344 254.212 202.15L254.804 195.53C254.821 195.336 254.714 195.153 254.536 195.074L249.482 192.81C249.108 190.173 248.305 187.659 247.142 185.347L250.003 180.602C250.103 180.435 250.087 180.224 249.962 180.075L245.699 174.975C245.575 174.826 245.369 174.772 245.188 174.842L240.01 176.816C237.941 175.261 235.609 174.025 233.081 173.189L231.749 167.814C231.702 167.626 231.541 167.487 231.347 167.47L224.727 166.879C224.533 166.861 224.35 166.969 224.271 167.146L222.007 172.2C219.37 172.574 216.857 173.377 214.545 174.54L209.799 171.68C209.633 171.579 209.421 171.596 209.272 171.72L204.173 175.983Z" fill="url(#paint34_linear_350_424)"/>
<path opacity="0.7" d="M218.758 196.317C218.72 193.061 221.077 190.173 224.387 189.645C228.025 189.064 231.457 191.552 232.037 195.19C232.319 196.953 231.896 198.719 230.849 200.163C229.802 201.608 228.254 202.559 226.492 202.84C222.854 203.42 219.422 200.933 218.842 197.295C218.79 196.967 218.762 196.64 218.758 196.317ZM230.563 196.193C230.56 195.941 230.539 195.689 230.498 195.436C230.053 192.646 227.422 190.739 224.633 191.184C221.843 191.629 219.935 194.259 220.381 197.049C220.826 199.838 223.457 201.746 226.246 201.301C227.598 201.086 228.784 200.357 229.587 199.249C230.24 198.348 230.576 197.285 230.563 196.193Z" fill="white"/>
<path opacity="0.7" d="M209.113 196.568C209.106 196.009 209.127 195.446 209.178 194.881C209.194 194.703 209.212 194.526 209.234 194.349C209.34 193.475 209.516 192.611 209.759 191.77C209.762 191.759 209.765 191.748 209.768 191.736C209.778 191.704 209.787 191.671 209.797 191.639C209.816 191.576 209.836 191.513 209.855 191.45C209.906 191.284 210.058 191.178 210.222 191.176C210.262 191.175 210.303 191.181 210.343 191.193C210.548 191.257 210.662 191.476 210.599 191.681C210.27 192.738 210.053 193.838 209.954 194.95C209.46 200.473 211.913 205.592 216.01 208.75C218.289 210.506 221.076 211.655 224.148 211.93C224.687 211.978 225.224 211.999 225.757 211.992C229.348 211.949 232.785 210.683 235.577 208.349C238.784 205.669 240.755 201.899 241.127 197.736C241.895 189.138 235.527 181.524 226.933 180.757C226.403 180.709 225.873 180.689 225.345 180.695C223.054 180.723 220.796 181.251 218.732 182.25C218.679 182.276 218.623 182.289 218.567 182.289C218.421 182.291 218.28 182.21 218.212 182.069C218.119 181.875 218.199 181.643 218.393 181.549C220.559 180.5 222.931 179.945 225.335 179.916C225.89 179.909 226.446 179.931 227.002 179.98C236.026 180.786 242.709 188.785 241.904 197.805C241.513 202.176 239.444 206.133 236.077 208.947C233.146 211.397 229.537 212.726 225.768 212.771C225.208 212.778 224.644 212.756 224.079 212.706C219.708 212.315 215.751 210.246 212.937 206.879C210.486 203.948 209.157 200.338 209.113 196.568Z" fill="white"/>
<path d="M236.216 222.84L235.914 220.236C242.014 219.271 246.314 215.62 248.136 214.571C250.027 217.018 251.322 219.236 252.712 222.142C245.144 225.454 236.216 222.84 236.216 222.84Z" fill="url(#paint35_linear_350_424)"/>
<path d="M307.376 302.645C307.376 302.645 308.505 304.424 308.789 309.405C308.815 309.869 308.447 310.265 307.983 310.265H299.155C298.8 310.265 298.547 309.916 298.66 309.58C299.178 308.049 300.742 304.316 304.231 302.183L307.376 302.645Z" fill="url(#paint36_linear_350_424)"/>
<path d="M307.76 299.27L307.261 303.456C307.218 303.817 306.935 304.106 306.573 304.148C306.09 304.204 305.389 304.243 304.707 304.13C304.087 304.028 303.641 303.476 303.641 302.848V298.806L307.76 299.27Z" fill="url(#paint37_linear_350_424)"/>
<path d="M285.537 302.183C285.537 302.183 287.227 304.81 287.19 308.414C287.182 309.263 286.471 309.94 285.622 309.94H271.912C271.27 309.94 271.009 309.115 271.535 308.746C274.129 306.924 279.228 303.521 282.916 302.183H285.537Z" fill="url(#paint38_linear_350_424)"/>
<path d="M286.948 297.662L285.883 302.832C285.764 303.411 285.199 303.8 284.622 303.671C284.272 303.593 283.859 303.443 283.417 303.167C282.997 302.904 282.785 302.405 282.87 301.918L283.972 295.654L286.948 297.662Z" fill="url(#paint39_linear_350_424)"/>
<path d="M305.804 225.776C305.804 225.776 309.507 229.04 310.203 232.968C310.9 236.895 308.229 300.732 308.229 300.732C308.229 300.732 304.526 301.348 302.617 300.192C302.617 300.192 300.354 258.762 298.633 249.189C298.633 249.189 289.609 292.104 287.108 299.859C287.108 299.859 283.541 300.293 282.391 299.614C282.391 299.614 284.755 243.983 287.725 234.093L305.804 225.776Z" fill="url(#paint40_linear_350_424)"/>
<path d="M298.742 247.842C298.921 247.842 299.084 247.722 299.131 247.542L300.664 241.66L303.93 239.565C304.116 239.445 304.171 239.197 304.051 239.01C303.931 238.823 303.683 238.768 303.496 238.888L300.097 241.068C300.012 241.123 299.951 241.208 299.926 241.305L298.353 247.339C298.297 247.554 298.426 247.773 298.64 247.829C298.675 247.838 298.709 247.842 298.742 247.842Z" fill="url(#paint41_linear_350_424)"/>
<path d="M269.263 188.89C284.851 187.595 288.925 190.821 288.925 190.821L281.434 202.647C281.434 202.647 266.118 202.345 255.143 193.886C257.197 191.674 258.623 189.229 259.538 187.326C262.368 188.502 265.627 189.191 269.263 188.89Z" fill="url(#paint42_linear_350_424)"/>
<path d="M244.855 166.009C244.876 165.509 245.553 165.374 245.765 165.826L247.754 170.071C248.138 170.891 248.261 171.809 248.107 172.701L247.409 175.172C247.2 176.376 247.515 177.611 248.279 178.566C250.106 180.85 253.999 185.023 259.54 187.326C258.625 189.229 257.198 191.674 255.144 193.886C251.118 190.782 247.674 186.582 245.788 180.893C244.884 180.616 244.28 179.765 244.316 178.82L244.855 166.009Z" fill="url(#paint43_linear_350_424)"/>
<path d="M264.133 195.746C269.62 189.833 280.073 187.161 286.124 186.064C288.776 185.583 291.389 187.059 292.328 189.584C295.052 196.905 302.458 215.951 303.894 219.224C305.072 221.91 306.301 224.532 307.083 226.172C307.55 227.152 307.142 228.324 306.164 228.795C301.073 231.249 291.911 234.026 288.197 235.109C287.38 235.348 286.567 234.734 286.567 233.883C286.567 233.161 286.37 232.453 285.999 231.834L271.932 208.393C263.165 218.115 257.778 222.018 251.926 222.594C249.995 220.627 246.821 216.466 247.86 214.49C255.355 210.567 264.133 195.746 264.133 195.746Z" fill="url(#paint44_linear_350_424)"/>
<path d="M238.399 222.497L232.208 228.844L223.154 231.15C223.499 229.812 229.336 226.345 229.336 226.345C229.336 226.345 233.638 220.823 234.996 219.532C236.124 218.46 237.502 220.236 237.937 220.869C238.025 220.998 238.075 221.08 238.075 221.08L238.399 222.497Z" fill="url(#paint45_linear_350_424)"/>
<path d="M277.802 175.205L282.476 186.611C282.476 186.611 277.105 190.329 272.784 189.975L270.451 179.718L277.802 175.205Z" fill="url(#paint46_linear_350_424)"/>
<path d="M269.903 167.428C269.796 167.58 266.521 179.41 266.521 179.41L273.316 181.136L278.085 170.385C278.085 170.385 271.695 164.889 269.903 167.428Z" fill="url(#paint47_linear_350_424)"/>
<path d="M275.527 172.018L273.46 177.875C273.433 177.95 273.398 178.019 273.352 178.084C273.071 178.483 272.006 179.784 270.741 178.612C269.594 177.549 268.531 176.596 267.55 176.423C267.109 176.345 266.682 176.614 266.563 177.045C266.266 178.12 265.641 180.555 265.42 182.753C265.376 183.199 265.684 183.602 266.124 183.685C267.451 183.937 270.265 184.391 272.614 184.225C272.932 184.203 273.212 184.012 273.345 183.721C273.992 182.307 275.975 178.015 276.713 176.905C277.405 175.862 279.103 175.892 279.815 175.955C280.048 175.975 280.278 175.9 280.454 175.746C281.076 175.2 282.261 173.806 280.594 172.138C280.245 171.789 280.255 171.225 280.614 170.887C281.33 170.214 282.096 169.02 280.903 167.539C279.691 166.034 278.09 166.274 277.11 166.632C276.713 166.776 276.281 166.609 276.065 166.246C275.943 166.039 275.728 165.883 275.357 165.915C274.857 165.958 274.437 165.541 274.446 165.039C274.463 164.075 274.118 162.856 272.445 162.336C269.477 161.412 267.626 164.28 267.443 166.419C267.26 168.559 270.535 169.377 272.46 169.233C273.924 169.123 275.011 170.574 275.448 171.276C275.587 171.499 275.614 171.772 275.527 172.018Z" fill="url(#paint48_linear_350_424)"/>
<path d="M275.939 179.03C275.939 179.03 276.419 175.315 277.964 175.133C279.509 174.951 281.013 176.221 279.477 178.306C277.566 180.899 275.939 179.03 275.939 179.03Z" fill="url(#paint49_linear_350_424)"/>
<defs>
<linearGradient id="paint0_linear_350_424" x1="349.425" y1="400.973" x2="75.026" y2="60.1866" gradientUnits="userSpaceOnUse">
<stop stop-color="#DAE3FE"/>
<stop offset="1" stop-color="#E9EFFD"/>
</linearGradient>
<linearGradient id="paint1_linear_350_424" x1="61.6451" y1="128.842" x2="104.744" y2="128.842" gradientUnits="userSpaceOnUse">
<stop stop-color="#DAE3FE"/>
<stop offset="1" stop-color="#E9EFFD"/>
</linearGradient>
<linearGradient id="paint2_linear_350_424" x1="18.4862" y1="111.427" x2="70.5151" y2="111.427" gradientUnits="userSpaceOnUse">
<stop stop-color="#DAE3FE"/>
<stop offset="1" stop-color="#E9EFFD"/>
</linearGradient>
<linearGradient id="paint3_linear_350_424" x1="274.406" y1="98.1053" x2="35.2854" y2="280.173" gradientUnits="userSpaceOnUse">
<stop stop-color="#09005D"/>
<stop offset="1" stop-color="#1A0F91"/>
</linearGradient>
<linearGradient id="paint4_linear_350_424" x1="110.082" y1="291.016" x2="109.545" y2="299.339" gradientUnits="userSpaceOnUse">
<stop stop-color="#09005D"/>
<stop offset="1" stop-color="#1A0F91"/>
</linearGradient>
<linearGradient id="paint5_linear_350_424" x1="110.292" y1="268.026" x2="108.413" y2="308.836" gradientUnits="userSpaceOnUse">
<stop stop-color="#09005D"/>
<stop offset="1" stop-color="#1A0F91"/>
</linearGradient>
<linearGradient id="paint6_linear_350_424" x1="110.049" y1="256.932" x2="108.438" y2="291.03" gradientUnits="userSpaceOnUse">
<stop stop-color="#09005D"/>
<stop offset="1" stop-color="#1A0F91"/>
</linearGradient>
<linearGradient id="paint7_linear_350_424" x1="110.78" y1="233.028" x2="108.36" y2="266.104" gradientUnits="userSpaceOnUse">
<stop stop-color="#09005D"/>
<stop offset="1" stop-color="#1A0F91"/>
</linearGradient>
<linearGradient id="paint8_linear_350_424" x1="56.9122" y1="205.363" x2="65.5084" y2="197.448" gradientUnits="userSpaceOnUse">
<stop stop-color="#09005D"/>
<stop offset="1" stop-color="#1A0F91"/>
</linearGradient>
<linearGradient id="paint9_linear_350_424" x1="56.023" y1="192.729" x2="76.8707" y2="173.533" gradientUnits="userSpaceOnUse">
<stop stop-color="#09005D"/>
<stop offset="1" stop-color="#1A0F91"/>
</linearGradient>
<linearGradient id="paint10_linear_350_424" x1="40.8729" y1="125.628" x2="73.334" y2="199.478" gradientUnits="userSpaceOnUse">
<stop stop-color="#007AFF"/>
<stop offset="1" stop-color="#4042E2"/>
</linearGradient>
<linearGradient id="paint11_linear_350_424" x1="92.4912" y1="251.526" x2="126.653" y2="220.072" gradientUnits="userSpaceOnUse">
<stop stop-color="#007AFF"/>
<stop offset="1" stop-color="#4042E2"/>
</linearGradient>
<linearGradient id="paint12_linear_350_424" x1="75.2302" y1="116.146" x2="57.7482" y2="101.544" gradientUnits="userSpaceOnUse">
<stop stop-color="#09005D"/>
<stop offset="1" stop-color="#1A0F91"/>
</linearGradient>
<linearGradient id="paint13_linear_350_424" x1="24.7716" y1="137.213" x2="83.1637" y2="42.8156" gradientUnits="userSpaceOnUse">
<stop stop-color="#09005D"/>
<stop offset="1" stop-color="#1A0F91"/>
</linearGradient>
<linearGradient id="paint14_linear_350_424" x1="36.0302" y1="75.9444" x2="65.7135" y2="102.14" gradientUnits="userSpaceOnUse">
<stop stop-color="#007AFF"/>
<stop offset="1" stop-color="#4042E2"/>
</linearGradient>
<linearGradient id="paint15_linear_350_424" x1="18.151" y1="153.949" x2="37.7683" y2="122.235" gradientUnits="userSpaceOnUse">
<stop stop-color="#007AFF"/>
<stop offset="1" stop-color="#4042E2"/>
</linearGradient>
<linearGradient id="paint16_linear_350_424" x1="85.0087" y1="41.5914" x2="141.188" y2="75.7633" gradientUnits="userSpaceOnUse">
<stop stop-color="#09005D"/>
<stop offset="1" stop-color="#1A0F91"/>
</linearGradient>
<linearGradient id="paint17_linear_350_424" x1="117.084" y1="36.8814" x2="52.6745" y2="50.8116" gradientUnits="userSpaceOnUse">
<stop stop-color="#007AFF"/>
<stop offset="1" stop-color="#4042E2"/>
</linearGradient>
<linearGradient id="paint18_linear_350_424" x1="198.351" y1="97.5934" x2="164.855" y2="76.6621" gradientUnits="userSpaceOnUse">
<stop stop-color="#4F52FF"/>
<stop offset="1" stop-color="#4042E2"/>
</linearGradient>
<linearGradient id="paint19_linear_350_424" x1="-1281.51" y1="-296.239" x2="-1175.29" y2="-268.803" gradientUnits="userSpaceOnUse">
<stop stop-color="#FF928E"/>
<stop offset="1" stop-color="#FE7062"/>
</linearGradient>
<linearGradient id="paint20_linear_350_424" x1="-1295.56" y1="-241.991" x2="-1189.35" y2="-214.554" gradientUnits="userSpaceOnUse">
<stop stop-color="#FF928E"/>
<stop offset="1" stop-color="#FE7062"/>
</linearGradient>
<linearGradient id="paint21_linear_350_424" x1="-1302.88" y1="-213.633" x2="-1196.66" y2="-186.196" gradientUnits="userSpaceOnUse">
<stop stop-color="#FF928E"/>
<stop offset="1" stop-color="#FE7062"/>
</linearGradient>
<linearGradient id="paint22_linear_350_424" x1="-1291.12" y1="-259.033" x2="-1184.9" y2="-231.596" gradientUnits="userSpaceOnUse">
<stop stop-color="#FF928E"/>
<stop offset="1" stop-color="#FE7062"/>
</linearGradient>
<linearGradient id="paint23_linear_350_424" x1="-1276.87" y1="-314.372" x2="-1170.65" y2="-286.935" gradientUnits="userSpaceOnUse">
<stop stop-color="#FF928E"/>
<stop offset="1" stop-color="#FE7062"/>
</linearGradient>
<linearGradient id="paint24_linear_350_424" x1="-1286.53" y1="-276.906" x2="-1180.31" y2="-249.469" gradientUnits="userSpaceOnUse">
<stop stop-color="#FF928E"/>
<stop offset="1" stop-color="#FE7062"/>
</linearGradient>
<linearGradient id="paint25_linear_350_424" x1="218.959" y1="125.182" x2="182.017" y2="101.811" gradientUnits="userSpaceOnUse">
<stop stop-color="#007AFF"/>
<stop offset="1" stop-color="#4042E2"/>
</linearGradient>
<linearGradient id="paint26_linear_350_424" x1="189.502" y1="120.664" x2="156.007" y2="99.7331" gradientUnits="userSpaceOnUse">
<stop stop-color="#007AFF"/>
<stop offset="1" stop-color="#4042E2"/>
</linearGradient>
<linearGradient id="paint27_linear_350_424" x1="149.627" y1="80.8977" x2="158.853" y2="86.5099" gradientUnits="userSpaceOnUse">
<stop stop-color="#09005D"/>
<stop offset="1" stop-color="#1A0F91"/>
</linearGradient>
<linearGradient id="paint28_linear_350_424" x1="158.28" y1="76.2587" x2="132.253" y2="84.8665" gradientUnits="userSpaceOnUse">
<stop stop-color="#007AFF"/>
<stop offset="1" stop-color="#4042E2"/>
</linearGradient>
<linearGradient id="paint29_linear_350_424" x1="-873.656" y1="2136.61" x2="-828.752" y2="2057.94" gradientUnits="userSpaceOnUse">
<stop stop-color="#FF928E"/>
<stop offset="1" stop-color="#FE7062"/>
</linearGradient>
<linearGradient id="paint30_linear_350_424" x1="-847.414" y1="2151.69" x2="-802.509" y2="2073.02" gradientUnits="userSpaceOnUse">
<stop stop-color="#FF928E"/>
<stop offset="1" stop-color="#FE7062"/>
</linearGradient>
<linearGradient id="paint31_linear_350_424" x1="-858.817" y1="2145.22" x2="-813.91" y2="2066.55" gradientUnits="userSpaceOnUse">
<stop stop-color="#FF928E"/>
<stop offset="1" stop-color="#FE7062"/>
</linearGradient>
<linearGradient id="paint32_linear_350_424" x1="-888.045" y1="2128.4" x2="-843.141" y2="2049.73" gradientUnits="userSpaceOnUse">
<stop stop-color="#FF928E"/>
<stop offset="1" stop-color="#FE7062"/>
</linearGradient>
<linearGradient id="paint33_linear_350_424" x1="-913.069" y1="2114.22" x2="-868.163" y2="2035.54" gradientUnits="userSpaceOnUse">
<stop stop-color="#FF928E"/>
<stop offset="1" stop-color="#FE7062"/>
</linearGradient>
<linearGradient id="paint34_linear_350_424" x1="-880.075" y1="2133.07" x2="-835.168" y2="2054.39" gradientUnits="userSpaceOnUse">
<stop stop-color="#FF928E"/>
<stop offset="1" stop-color="#FE7062"/>
</linearGradient>
<linearGradient id="paint35_linear_350_424" x1="211.605" y1="214.661" x2="263.638" y2="221.729" gradientUnits="userSpaceOnUse">
<stop stop-color="#FEBBBA"/>
<stop offset="1" stop-color="#FF928E"/>
</linearGradient>
<linearGradient id="paint36_linear_350_424" x1="308.79" y1="306.224" x2="298.633" y2="306.224" gradientUnits="userSpaceOnUse">
<stop stop-color="#09005D"/>
<stop offset="1" stop-color="#1A0F91"/>
</linearGradient>
<linearGradient id="paint37_linear_350_424" x1="307.76" y1="301.504" x2="303.641" y2="301.504" gradientUnits="userSpaceOnUse">
<stop stop-color="#FEBBBA"/>
<stop offset="1" stop-color="#FF928E"/>
</linearGradient>
<linearGradient id="paint38_linear_350_424" x1="287.191" y1="306.062" x2="271.254" y2="306.062" gradientUnits="userSpaceOnUse">
<stop stop-color="#09005D"/>
<stop offset="1" stop-color="#1A0F91"/>
</linearGradient>
<linearGradient id="paint39_linear_350_424" x1="286.948" y1="299.675" x2="282.852" y2="299.675" gradientUnits="userSpaceOnUse">
<stop stop-color="#FEBBBA"/>
<stop offset="1" stop-color="#FF928E"/>
</linearGradient>
<linearGradient id="paint40_linear_350_424" x1="356.433" y1="197.897" x2="328.634" y2="230.956" gradientUnits="userSpaceOnUse">
<stop stop-color="#007AFF"/>
<stop offset="1" stop-color="#4042E2"/>
</linearGradient>
<linearGradient id="paint41_linear_350_424" x1="306.091" y1="189.464" x2="298.765" y2="270.604" gradientUnits="userSpaceOnUse">
<stop stop-color="#09005D"/>
<stop offset="1" stop-color="#1A0F91"/>
</linearGradient>
<linearGradient id="paint42_linear_350_424" x1="264.054" y1="148.228" x2="272.388" y2="194.312" gradientUnits="userSpaceOnUse">
<stop stop-color="#007AFF"/>
<stop offset="1" stop-color="#4042E2"/>
</linearGradient>
<linearGradient id="paint43_linear_350_424" x1="259.54" y1="179.718" x2="244.314" y2="179.718" gradientUnits="userSpaceOnUse">
<stop stop-color="#FEBBBA"/>
<stop offset="1" stop-color="#FF928E"/>
</linearGradient>
<linearGradient id="paint44_linear_350_424" x1="279.793" y1="193.748" x2="272.279" y2="282.405" gradientUnits="userSpaceOnUse">
<stop stop-color="#007AFF"/>
<stop offset="0.599827" stop-color="#2658EE"/>
<stop offset="1" stop-color="#4042E2"/>
</linearGradient>
<linearGradient id="paint45_linear_350_424" x1="211.91" y1="222.783" x2="263.941" y2="229.851" gradientUnits="userSpaceOnUse">
<stop stop-color="#FEBBBA"/>
<stop offset="1" stop-color="#FF928E"/>
</linearGradient>
<linearGradient id="paint46_linear_350_424" x1="262.075" y1="158.303" x2="293.936" y2="216.846" gradientUnits="userSpaceOnUse">
<stop stop-color="#FEBBBA"/>
<stop offset="1" stop-color="#FF928E"/>
</linearGradient>
<linearGradient id="paint47_linear_350_424" x1="272.114" y1="169.089" x2="272.875" y2="192.428" gradientUnits="userSpaceOnUse">
<stop stop-color="#FEBBBA"/>
<stop offset="1" stop-color="#FF928E"/>
</linearGradient>
<linearGradient id="paint48_linear_350_424" x1="278.309" y1="178.962" x2="264.567" y2="169.261" gradientUnits="userSpaceOnUse">
<stop stop-color="#09005D"/>
<stop offset="1" stop-color="#1A0F91"/>
</linearGradient>
<linearGradient id="paint49_linear_350_424" x1="280.457" y1="193.034" x2="277.912" y2="177.054" gradientUnits="userSpaceOnUse">
<stop stop-color="#FEBBBA"/>
<stop offset="1" stop-color="#FF928E"/>
</linearGradient>
</defs>
</svg>
